<?xml version="1.0" encoding="UTF-8"?>
<svg version="1.1" xmlns="http://www.w3.org/2000/svg" width="168" height="168">
<path d="M0 0 C15.44534836 12.90807422 28.56832251 32.47226737 30.44921875 53.046875 C32.15961292 80.67449193 26.82516518 103.20203588 8.40234375 124.40234375 C-5.83674237 139.49889308 -25.80366861 149.46845024 -46.578125 150.359375 C-72.94871996 151.05506228 -94.70172419 144.22733244 -114.17578125 125.859375 C-131.17204637 108.07399757 -138.10724592 87.02528629 -137.96850586 62.77832031 C-137.44356238 39.8651134 -127.68642782 19.10952359 -111.07421875 3.234375 C-79.23326634 -24.36768901 -33.44313392 -25.79470419 0 0 Z " fill="#29292C" transform="translate(137.55078125,17.953125)"/>
<path d="M0 0 C4.16860919 4.26931189 3.47949356 8.87286362 3.4375 14.5 C3.45748047 15.45003906 3.47746094 16.40007812 3.49804688 17.37890625 C3.49318229 24.29635139 3.49318229 24.29635139 1.16015625 27.625 C-1.80825531 29.51447716 -3.54659607 29.57556732 -7 29 C-9.15625 27.625 -9.15625 27.625 -11 25 C-11.60145139 21.49255644 -11.55780865 18.05041443 -11.5 14.5 C-11.51546875 13.54996094 -11.5309375 12.59992188 -11.546875 11.62109375 C-11.5081489 4.73752929 -11.5081489 4.73752929 -9.19140625 1.375 C-5.9670724 -0.64811144 -3.71672336 -0.54061431 0 0 Z " fill="#E3DBC5" transform="translate(78,69)"/>
<path d="M0 0 C0.99 0 1.98 0 3 0 C3.25652344 0.60585937 3.51304688 1.21171875 3.77734375 1.8359375 C7.07764412 9.0588171 11.4104134 14.40069238 17 20 C17.84884766 20.86625 17.84884766 20.86625 18.71484375 21.75 C28.97731675 31.38518248 42.77605171 35.49646293 56.53857422 35.3515625 C72.31204147 34.85004356 86.65415403 29.11663696 98 18 C102.65493212 12.41086004 106.58043596 6.41168257 110 0 C110.66 0 111.32 0 112 0 C110.07350977 10.83650755 101.21118646 20.44512993 92.5390625 26.8046875 C76.63547773 37.42226701 61.16119631 39.79822677 42.41015625 37.57421875 C26.11465037 34.0088933 12.31472005 23.08154441 3.26953125 9.3046875 C1.57337052 6.2255034 0.67357556 3.44271954 0 0 Z " fill="#ECE8D5" transform="translate(28,107)"/>
<path d="M0 0 C2.47566511 2.17828792 4.81090944 4.41796137 7.1015625 6.7890625 C7.68550781 7.3871875 8.26945312 7.9853125 8.87109375 8.6015625 C13.10598927 13.23314443 18.1015625 19.33144046 18.1015625 25.7890625 C15.1015625 24.7890625 15.1015625 24.7890625 13.8125 22.63671875 C13.15121094 21.25806641 13.15121094 21.25806641 12.4765625 19.8515625 C5.51938129 6.67223396 -5.12445538 -1.78207725 -19.21875 -6.43359375 C-35.55513889 -11.17257537 -51.69211789 -10.11490445 -66.8984375 -2.2109375 C-77.20381992 4.60215194 -86.64338043 14.0250812 -90.8984375 25.7890625 C-91.8884375 25.7890625 -92.8784375 25.7890625 -93.8984375 25.7890625 C-89.4808848 11.16396083 -79.03433884 0.95885725 -65.8984375 -6.2109375 C-44.56691534 -16.41526269 -19.06281686 -14.54117836 0 0 Z " fill="#E8E4D1" transform="translate(121.8984375,35.2109375)"/>
<path d="M0 0 C3.63 0 7.26 0 11 0 C14.22561924 4.83842885 13.46574702 10.46426621 12.4375 16.0625 C11.82963034 20.14391059 12.41325971 23.93795184 13 28 C11.35 27.67 9.7 27.34 8 27 C7.67 23.7 7.34 20.4 7 17 C6.34 17 5.68 17 5 17 C5 20.63 5 24.26 5 28 C3.35 28 1.7 28 0 28 C0 18.76 0 9.52 0 0 Z " fill="#E5DEC8" transform="translate(34,70)"/>
<path d="M0 0 C3.63 0 7.26 0 11 0 C14.34177554 5.01266331 13.33697346 10.82839323 12.4375 16.625 C11.91128121 20.68440212 12.36315067 23.96662094 13 28 C11.35 27.67 9.7 27.34 8 27 C7.34 24.03 6.68 21.06 6 18 C5.67 21.3 5.34 24.6 5 28 C3.35 28 1.7 28 0 28 C0 18.76 0 9.52 0 0 Z " fill="#D8D0BB" transform="translate(51,70)"/>
<path d="M0 0 C3.3 0 6.6 0 10 0 C12 2 12 2 12.23046875 4.6796875 C12.20919922 6.26136719 12.20919922 6.26136719 12.1875 7.875 C12.17783203 9.44894531 12.17783203 9.44894531 12.16796875 11.0546875 C12 14 12 14 11.4296875 16.0546875 C10.85122326 18.67355286 11.35514317 20.6465224 11.9375 23.25 C12.13214844 24.14203125 12.32679687 25.0340625 12.52734375 25.953125 C12.68332031 26.62859375 12.83929688 27.3040625 13 28 C11.35 28 9.7 28 8 28 C6.80712589 24.12315913 6 21.08378077 6 17 C5.34 17 4.68 17 4 17 C4 20.3 4 23.6 4 27 C2.68 27 1.36 27 0 27 C0 18.09 0 9.18 0 0 Z " fill="#EFE7D0" transform="translate(85,70)"/>
<path d="M0 0 C1.65 0 3.3 0 5 0 C5 6.27 5 12.54 5 19 C5.66 19 6.32 19 7 19 C7 20.32 7 21.64 7 23 C6.34 23 5.68 23 5 23 C5 24.98 5 26.96 5 29 C3.35 29 1.7 29 0 29 C0 27.02 0 25.04 0 23 C-2.31 23 -4.62 23 -7 23 C-7.40086228 17.58409479 -6.02455793 13.62182875 -4.0625 8.6875 C-3.78470703 7.95982422 -3.50691406 7.23214844 -3.22070312 6.48242188 C-1.16354008 1.16354008 -1.16354008 1.16354008 0 0 Z " fill="#DED6C0" transform="translate(138,69)"/>
<path d="M0 0 C7.76024725 5.47857987 13.7239958 13.06255166 17 22 C13.0504657 20.68348857 11.99584099 18.2266408 9.875 14.875 C2.41500147 3.67814978 -8.68643207 -3.55629735 -21.88696289 -6.62280273 C-36.63422547 -9.25532968 -51.0582922 -6.4384635 -63.4296875 2.01953125 C-70.73313527 7.64695985 -76.06667413 13.63921184 -80 22 C-80.66 22 -81.32 22 -82 22 C-79.36435081 11.45740326 -70.18890989 2.45142009 -61.25 -3.25 C-41.17348368 -14.36649769 -19.12142266 -12.07008438 0 0 Z " fill="#E8E5D5" transform="translate(117,39)"/>
<path d="M0 0 C0.66 0 1.32 0 2 0 C3.12733353 1.64489562 4.17653603 3.34362992 5.1875 5.0625 C12.27512943 16.42890366 22.46710206 24.4307612 35.4296875 28.33984375 C47.0790131 30.4938219 59.28426444 30.36721833 70 25 C70.68707031 24.72285156 71.37414062 24.44570312 72.08203125 24.16015625 C82.48633605 19.70703171 91.17853095 10.11169203 96 0 C96.66 0 97.32 0 98 0 C96.36097696 8.36466932 89.44944653 15.79122601 83 21 C68.43519221 30.76843562 54.17454559 34.06676242 36.78515625 31.53125 C21.45636646 27.83650583 10.41209691 17.88792891 1.3984375 5.3828125 C0 3 0 3 0 0 Z " fill="#E8E5D5" transform="translate(35,107)"/>
<path d="M0 0 C3.63 0 7.26 0 11 0 C11.33 1.65 11.66 3.3 12 5 C9.69 5 7.38 5 5 5 C5 7.64 5 10.28 5 13 C6.98 13 8.96 13 11 13 C11 14.32 11 15.64 11 17 C9.02 17 7.04 17 5 17 C5 19.31 5 21.62 5 24 C7.31 24 9.62 24 12 24 C12 25.65 12 27.3 12 29 C8.04 29 4.08 29 0 29 C0 19.43 0 9.86 0 0 Z " fill="#D8D1BD" transform="translate(19,69)"/>
<path d="M0 0 C2.5625 0.25 2.5625 0.25 5 1 C6.87354157 4.74708314 6.22800786 9.25147353 6.25 13.375 C6.270625 14.3340625 6.29125 15.293125 6.3125 16.28125 C6.31765625 17.20679687 6.3228125 18.13234375 6.328125 19.0859375 C6.34214355 20.3551001 6.34214355 20.3551001 6.35644531 21.64990234 C5.91489909 24.56108313 5.06489547 25.91792669 3 28 C-0.5625 28.375 -0.5625 28.375 -4 28 C-6 26 -6 26 -6.22705078 23.84521484 C-6.21657715 22.97590332 -6.20610352 22.1065918 -6.1953125 21.2109375 C-6.18886719 20.26992187 -6.18242188 19.32890625 -6.17578125 18.359375 C-6.15902344 17.37453125 -6.14226562 16.3896875 -6.125 15.375 C-6.11597656 14.38242188 -6.10695313 13.38984375 -6.09765625 12.3671875 C-6.07404116 9.91121866 -6.04110799 7.45572832 -6 5 C-5.01 4.67 -4.02 4.34 -3 4 C-2.67 10.27 -2.34 16.54 -2 23 C-1.01 23.33 -0.02 23.66 1 24 C0.89040282 20.70762945 0.75971069 17.41643113 0.625 14.125 C0.5940625 13.18785156 0.563125 12.25070313 0.53125 11.28515625 C0.49257812 10.38925781 0.45390625 9.49335937 0.4140625 8.5703125 C0.3826416 7.74289551 0.3512207 6.91547852 0.31884766 6.06298828 C0.17400863 3.78013915 0.17400863 3.78013915 -2 2 C-1.34 1.34 -0.68 0.68 0 0 Z " fill="#F1E8CF" transform="translate(123,70)"/>
<path d="M0 0 C1.65 0 3.3 0 5 0 C5 6.27 5 12.54 5 19 C5.66 19 6.32 19 7 19 C7 20.32 7 21.64 7 23 C6.34 23 5.68 23 5 23 C5 24.98 5 26.96 5 29 C3.35 29 1.7 29 0 29 C0 27.02 0 25.04 0 23 C-2.31 23 -4.62 23 -7 23 C-6.505 18.545 -6.505 18.545 -6 14 C-4.68 13.67 -3.36 13.34 -2 13 C-2.33 14.98 -2.66 16.96 -3 19 C-1.68 19 -0.36 19 1 19 C1 15.7 1 12.4 1 9 C-0.32 8.67 -1.64 8.34 -3 8 C-1.125 1.125 -1.125 1.125 0 0 Z " fill="#DDD5BF" transform="translate(107,69)"/>
<path d="M0 0 C0 0.33 0 0.66 0 1 C-1.09957031 1.27972656 -2.19914062 1.55945313 -3.33203125 1.84765625 C-19.20963943 6.07256831 -32.38819653 13.39737672 -41 28 C-41.66 27.01 -42.32 26.02 -43 25 C-40.8838212 15.47719541 -30.57751671 8.93505341 -23 4 C-15.10676025 -0.43553702 -8.91457355 -1.77238569 0 0 Z " fill="#232528" transform="translate(78,28)"/>
<path d="M0 0 C2.8125 -0.25 2.8125 -0.25 6 0 C8.80146149 2.85857589 9.37727442 4.93699128 9.36328125 8.87890625 C9.36263672 9.79994141 9.36199219 10.72097656 9.36132812 11.66992188 C9.34521484 12.62447266 9.32910156 13.57902344 9.3125 14.5625 C9.31572266 15.52091797 9.31894531 16.47933594 9.32226562 17.46679688 C9.26728664 24.59907003 9.26728664 24.59907003 7 28 C6.01 28 5.02 28 4 28 C3.97812622 26.97845825 3.97812622 26.97845825 3.95581055 25.9362793 C3.88137304 22.85277785 3.78469917 19.77036433 3.6875 16.6875 C3.66494141 15.61564453 3.64238281 14.54378906 3.61914062 13.43945312 C3.58369141 12.41142578 3.54824219 11.38339844 3.51171875 10.32421875 C3.48553467 9.37635498 3.45935059 8.42849121 3.43237305 7.4519043 C2.93108438 4.60919279 2.11435026 3.86117677 0 2 C0 1.34 0 0.68 0 0 Z " fill="#E7DEC7" transform="translate(72,69)"/>
<path d="M0 0 C1.98 0 3.96 0 6 0 C7.60116168 4.80348505 7.6117046 10.1648862 6 15 C5.34 15 4.68 15 4 15 C4 18.96 4 22.92 4 27 C2.35 27 0.7 27 -1 27 C0.32 26.67 1.64 26.34 3 26 C2.01 25.67 1.02 25.34 0 25 C0 16.75 0 8.5 0 0 Z " fill="#E2D9C2" transform="translate(35,71)"/>
<path d="M0 0 C2.97 0 5.94 0 9 0 C8.01 0.495 8.01 0.495 7 1 C7.33 2.32 7.66 3.64 8 5 C6.68 4.67 5.36 4.34 4 4 C4 7.3 4 10.6 4 14 C4.66 14.33 5.32 14.66 6 15 C6 15.66 6 16.32 6 17 C5.34 17 4.68 17 4 17 C4 20.3 4 23.6 4 27 C2.68 27 1.36 27 0 27 C0 18.09 0 9.18 0 0 Z " fill="#F2EAD2" transform="translate(85,70)"/>
<path d="M0 0 C-1.485 1.485 -1.485 1.485 -3 3 C-2.34 3.66 -1.68 4.32 -1 5 C-0.77294922 7.06298828 -0.77294922 7.06298828 -0.8046875 9.5703125 C-0.81435547 10.91416016 -0.81435547 10.91416016 -0.82421875 12.28515625 C-0.84097656 13.22230469 -0.85773438 14.15945312 -0.875 15.125 C-0.88402344 16.06988281 -0.89304687 17.01476562 -0.90234375 17.98828125 C-0.92595478 20.32577292 -0.95888484 22.66276123 -1 25 C-2.32 24.67 -3.64 24.34 -5 24 C-5 17.73 -5 11.46 -5 5 C-5.99 5.495 -5.99 5.495 -7 6 C-7.33 12.6 -7.66 19.2 -8 26 C-8.33 26 -8.66 26 -9 26 C-9.11627503 22.41694008 -9.1872736 18.83436583 -9.25 15.25 C-9.28351563 14.23421875 -9.31703125 13.2184375 -9.3515625 12.171875 C-9.45044789 4.65658507 -9.45044789 4.65658507 -7.15625 1.3125 C-4.56969444 -0.26192512 -2.97775928 -0.33086214 0 0 Z " fill="#CBC5B3" transform="translate(125,69)"/>
<path d="M0 0 C3.91302632 0 5.10737614 1.7117174 7.921875 4.21875 C14.63946783 9.97668671 21.99034239 14.30192404 30 18 C30 18.99 30 19.98 30 21 C19.17181078 20.14514296 11.4318401 13.28841863 4 6 C3.24460938 5.28972656 2.48921875 4.57945313 1.7109375 3.84765625 C0 2 0 2 0 0 Z " fill="#26282B" transform="translate(38,119)"/>
<path d="M0 0 C3.63 0 7.26 0 11 0 C13.20914 3.31371 13.22481553 4.3446021 13.125 8.1875 C13.10695313 9.08855469 13.08890625 9.98960938 13.0703125 10.91796875 C13.03550781 11.94857422 13.03550781 11.94857422 13 13 C12.01 13.495 12.01 13.495 11 14 C10.67 13.34 10.34 12.68 10 12 C9.01 13.32 8.02 14.64 7 16 C6.34 15.67 5.68 15.34 5 15 C5 14.34 5 13.68 5 13 C5.66 12.67 6.32 12.34 7 12 C7.46523063 10.10466658 7.46523063 10.10466658 7.625 7.9375 C7.74875 6.638125 7.8725 5.33875 8 4 C7.01 3.67 6.02 3.34 5 3 C5.66 3 6.32 3 7 3 C7 2.34 7 1.68 7 1 C5.02 1 3.04 1 1 1 C1 9.25 1 17.5 1 26 C1.66 26 2.32 26 3 26 C3 23.03 3 20.06 3 17 C3.33 17 3.66 17 4 17 C4 20.3 4 23.6 4 27 C2.68 27 1.36 27 0 27 C0 18.09 0 9.18 0 0 Z " fill="#F4EED8" transform="translate(51,70)"/>
<path d="M0 0 C10.11479883 3.4735875 17.37441767 12.66396228 22 22 C22.68359375 24.828125 22.68359375 24.828125 23 27 C21.18359375 26.79296875 21.18359375 26.79296875 19 26 C17.47265625 23.92578125 17.47265625 23.92578125 16.0625 21.3125 C12.25638985 14.61603553 8.04574163 9.78035385 2 5 C2.33 4.34 2.66 3.68 3 3 C2.01 2.01 1.02 1.02 0 0 Z " fill="#242528" transform="translate(114,34)"/>
<path d="M0 0 C12.58404544 3.22667832 22.63776468 13.62108143 29.125 24.4375 C32 29.51843318 32 29.51843318 32 33 C29 32 29 32 27.7109375 29.84765625 C27.27007812 28.92855469 26.82921875 28.00945313 26.375 27.0625 C20.76825101 16.44136124 13.29535282 9.9409249 3 4 C2.01 3.34 1.02 2.68 0 2 C0 1.34 0 0.68 0 0 Z " fill="#EEEAD7" transform="translate(108,28)"/>
<path d="M0 0 C-2.53230288 2.53230288 -4.48359395 2.77987427 -7.9375 3.6875 C-20.58526707 7.48043566 -31.54043396 15.42508805 -38.0625 27.0625 C-38.72469422 28.36682195 -39.37729871 29.67636861 -40 31 C-40.66 31 -41.32 31 -42 31 C-39.36435081 20.45740326 -30.18890989 11.45142009 -21.25 5.75 C-6.74509428 -2.44549627 -6.74509428 -2.44549627 0 0 Z " fill="#DCDACC" transform="translate(77,30)"/>
<path d="M0 0 C2.5625 0.25 2.5625 0.25 5 1 C6.2263757 3.45275141 6.11415314 5.0505781 6.09765625 7.7890625 C6.09443359 8.73007813 6.09121094 9.67109375 6.08789062 10.640625 C6.07951172 11.62546875 6.07113281 12.6103125 6.0625 13.625 C6.05798828 14.61757812 6.05347656 15.61015625 6.04882812 16.6328125 C6.03702145 19.0886016 6.020554 21.54427104 6 24 C5.34 24.33 4.68 24.66 4 25 C3.34 24.01 2.68 23.02 2 22 C1.67 22 1.34 22 1 22 C0.95101562 20.72382812 0.90203125 19.44765625 0.8515625 18.1328125 C0.77653809 16.46351928 0.70099012 14.79424954 0.625 13.125 C0.57859375 11.86236328 0.57859375 11.86236328 0.53125 10.57421875 C0.49257812 9.76855469 0.45390625 8.96289062 0.4140625 8.1328125 C0.3826416 7.38918457 0.3512207 6.64555664 0.31884766 5.87939453 C0.14580449 3.75989026 0.14580449 3.75989026 -2 2 C-1.34 1.34 -0.68 0.68 0 0 Z " fill="#E3DBC5" transform="translate(123,70)"/>
<path d="M0 0 C0.33 0 0.66 0 1 0 C1 1.98 1 3.96 1 6 C1.66 6 2.32 6 3 6 C3.05390357 8.93774463 3.0936255 11.87450232 3.125 14.8125 C3.14175781 15.64587891 3.15851562 16.47925781 3.17578125 17.33789062 C3.18222656 18.14033203 3.18867187 18.94277344 3.1953125 19.76953125 C3.20578613 20.50792236 3.21625977 21.24631348 3.22705078 22.00708008 C3 24 3 24 1 27 C-1.625 27.1875 -1.625 27.1875 -4 27 C-2.68 26.67 -1.36 26.34 0 26 C-0.37125 24.865625 -0.7425 23.73125 -1.125 22.5625 C-2.84686612 15.12499497 -1.11009154 7.43761331 0 0 Z " fill="#1F2125" transform="translate(47,72)"/>
<path d="M0 0 C0.99 0.33 1.98 0.66 3 1 C3 7.27 3 13.54 3 20 C1.68 20 0.36 20 -1 20 C-1.02888514 16.85418577 -1.04675923 13.70840531 -1.0625 10.5625 C-1.07087891 9.66466797 -1.07925781 8.76683594 -1.08789062 7.84179688 C-1.09111328 6.98779297 -1.09433594 6.13378906 -1.09765625 5.25390625 C-1.10551147 4.06776733 -1.10551147 4.06776733 -1.11352539 2.85766602 C-1 1 -1 1 0 0 Z " fill="#202227" transform="translate(73,73)"/>
<path d="M0 0 C0.99 0 1.98 0 3 0 C3.25652344 0.60585937 3.51304688 1.21171875 3.77734375 1.8359375 C6.66389724 8.15331046 10.2211523 12.85508888 15.01171875 17.87109375 C17 20 17 20 19 23 C18.01 23.33 17.02 23.66 16 24 C8.74671238 17.34196698 1.93664754 9.89842077 0 0 Z " fill="#E9E4D3" transform="translate(28,107)"/>
<path d="M0 0 C1.65 0 3.3 0 5 0 C5 5.94 5 11.88 5 18 C4.34 17.67 3.68 17.34 3 17 C2.5859375 14.93359375 2.5859375 14.93359375 2.375 12.4375 C2.30023438 11.61121094 2.22546875 10.78492187 2.1484375 9.93359375 C2.09945312 9.29550781 2.05046875 8.65742187 2 8 C0.68 7.67 -0.64 7.34 -2 7 C-1.34 4.69 -0.68 2.38 0 0 Z " fill="#EEE5CD" transform="translate(106,70)"/>
<path d="M0 0 C1.32 0.33 2.64 0.66 4 1 C4 2.98 4 4.96 4 7 C3.34 7 2.68 7 2 7 C2 10.63 2 14.26 2 18 C0.68 18 -0.64 18 -2 18 C-1.91621094 17.39671875 -1.83242187 16.7934375 -1.74609375 16.171875 C-1.64425781 15.37265625 -1.54242188 14.5734375 -1.4375 13.75 C-1.33308594 12.96109375 -1.22867188 12.1721875 -1.12109375 11.359375 C-0.88579015 9.01740369 -0.88579015 9.01740369 -1.53125 6.875 C-2.21280903 4.14876388 -1.16742926 2.47220314 0 0 Z " fill="#A29C8F" transform="translate(137,70)"/>
<path d="M0 0 C10.395 0.99 10.395 0.99 21 2 C21 2.33 21 2.66 21 3 C18.36 3.33 15.72 3.66 13 4 C13.33 4.66 13.66 5.32 14 6 C8.47322267 6.19392201 4.24385089 5.7479503 -1 4 C-0.67 2.68 -0.34 1.36 0 0 Z " fill="#353738" transform="translate(68,137)"/>
<path d="M0 0 C0.66 0.33 1.32 0.66 2 1 C2 7.6 2 14.2 2 21 C1.01 21 0.02 21 -1 21 C-1.02888146 17.68751813 -1.04675799 14.37506833 -1.0625 11.0625 C-1.07087891 10.11697266 -1.07925781 9.17144531 -1.08789062 8.19726562 C-1.09111328 7.29814453 -1.09433594 6.39902344 -1.09765625 5.47265625 C-1.10289307 4.64000244 -1.10812988 3.80734863 -1.11352539 2.94946289 C-1 1 -1 1 0 0 Z " fill="#15171D" transform="translate(122,73)"/>
<path d="M0 0 C0.66 0.66 1.32 1.32 2 2 C1.7578125 4.1640625 1.7578125 4.1640625 1.125 6.625 C0.92132813 7.44226563 0.71765625 8.25953125 0.5078125 9.1015625 C0.34023437 9.72804688 0.17265625 10.35453125 0 11 C0.99 11.33 1.98 11.66 3 12 C3 12.99 3 13.98 3 15 C0.69 15 -1.62 15 -4 15 C-4.59720137 9.17728663 -2.528243 5.0790596 0 0 Z " fill="#EBE3CD" transform="translate(135,77)"/>
<path d="M0 0 C0.99 0 1.98 0 3 0 C3 6.6 3 13.2 3 20 C2.01 20 1.02 20 0 20 C0 13.4 0 6.8 0 0 Z " fill="#F7F1DA" transform="translate(148,70)"/>
<path d="M0 0 C0.66 0 1.32 0 2 0 C3.12733353 1.64489562 4.17653603 3.34362992 5.1875 5.0625 C7.94832957 9.5633482 10.79612886 13.13761913 14.71484375 16.66015625 C16 18 16 18 16 20 C9.00021199 17.06258896 3.69313987 9.46299476 0 3 C0 2.01 0 1.02 0 0 Z " fill="#E7E5D6" transform="translate(35,107)"/>
<path d="M0 0 C2.87579981 4.31369972 4 7.80734761 4 13 C2.35 12.67 0.7 12.34 -1 12 C-1.22162329 10.37675914 -1.42689803 8.751279 -1.625 7.125 C-1.74101563 6.22007813 -1.85703125 5.31515625 -1.9765625 4.3828125 C-1.98429687 3.59648438 -1.99203125 2.81015625 -2 2 C-1.34 1.34 -0.68 0.68 0 0 Z " fill="#DCD5C1" transform="translate(60,85)"/>
<path d="M0 0 C0.66 0.66 1.32 1.32 2 2 C0.03282028 3.00555589 -1.93890318 3.99850401 -3.921875 4.97265625 C-5.44159106 5.72394445 -6.94485584 6.50876853 -8.4375 7.3125 C-12.36097993 8.36514096 -16.03312492 7.63953977 -20 7 C-20 6.67 -20 6.34 -20 6 C-19.14277344 5.81824219 -18.28554687 5.63648438 -17.40234375 5.44921875 C-11.29599169 4.10678509 -5.62620179 2.74767995 0 0 Z " fill="#E3DFCC" transform="translate(111,136)"/>
<path d="M0 0 C0.33 0 0.66 0 1 0 C0.99476318 0.64026123 0.98952637 1.28052246 0.98413086 1.94018555 C0.96327571 4.85594695 0.95031271 7.77169262 0.9375 10.6875 C0.92912109 11.69490234 0.92074219 12.70230469 0.91210938 13.74023438 C0.90727539 15.20493164 0.90727539 15.20493164 0.90234375 16.69921875 C0.89448853 18.04246216 0.89448853 18.04246216 0.88647461 19.4128418 C1.0039406 22.08980327 1.23595628 24.42809359 2 27 C2.99 27.66 3.98 28.32 5 29 C2.5625 28.625 2.5625 28.625 0 28 C-0.33 27.34 -0.66 26.68 -1 26 C-1.66 26.66 -2.32 27.32 -3 28 C-3 26.02 -3 24.04 -3 22 C-2.34 22 -1.68 22 -1 22 C-0.67 14.74 -0.34 7.48 0 0 Z " fill="#0D0F15" transform="translate(146,70)"/>
<path d="M0 0 C1.65 0.33 3.3 0.66 5 1 C5 4.3 5 7.6 5 11 C3.68 11 2.36 11 1 11 C1.33 9.02 1.66 7.04 2 5 C1.01 5 0.02 5 -1 5 C-0.67 3.35 -0.34 1.7 0 0 Z " fill="#C5C0AF" transform="translate(103,77)"/>
<path d="M0 0 C0.66 0.33 1.32 0.66 2 1 C2 7.6 2 14.2 2 21 C1.01 21 0.02 21 -1 21 C-1.22537111 17.87598221 -1.42738648 14.75088667 -1.625 11.625 C-1.68945312 10.73554687 -1.75390625 9.84609375 -1.8203125 8.9296875 C-1.871875 8.07890625 -1.9234375 7.228125 -1.9765625 6.3515625 C-2.02893066 5.56604004 -2.08129883 4.78051758 -2.13525391 3.97119141 C-2 2 -2 2 0 0 Z " fill="#D2CAB6" transform="translate(125,71)"/>
<path d="M0 0 C0.99 0 1.98 0 3 0 C4.82421875 2.51953125 4.82421875 2.51953125 6.6875 5.8125 C7.31011719 6.89144531 7.93273437 7.97039063 8.57421875 9.08203125 C10 12 10 12 10 15 C6.0767168 13.69223893 5.75668138 12.22761611 3.875 8.625 C3.35679687 7.64789063 2.83859375 6.67078125 2.3046875 5.6640625 C1 3 1 3 0 0 Z " fill="#E9E4D3" transform="translate(130,46)"/>
<path d="M0 0 C3.52398786 0 4.01504367 0.55115107 6.5625 2.8125 C7.16191406 3.33457031 7.76132812 3.85664062 8.37890625 4.39453125 C10 6 10 6 12 9 C10.265625 9.73828125 10.265625 9.73828125 8 10 C5.859375 8.41796875 5.859375 8.41796875 3.75 6.1875 C3.04359375 5.45917969 2.3371875 4.73085937 1.609375 3.98046875 C0 2 0 2 0 0 Z " fill="#191A1F" transform="translate(38,119)"/>
<path d="M0 0 C0.99 0 1.98 0 3 0 C3 6.93 3 13.86 3 21 C2.67 21 2.34 21 2 21 C1.67 18.03 1.34 15.06 1 12 C0.01 13.32 -0.98 14.64 -2 16 C-1.34 10.72 -0.68 5.44 0 0 Z " fill="#060A12" transform="translate(64,73)"/>
<path d="M0 0 C0.825 0.309375 1.65 0.61875 2.5 0.9375 C2.5 1.9275 2.5 2.9175 2.5 3.9375 C-6.41 1.9575 -6.41 1.9575 -15.5 -0.0625 C-9.90343954 -2.86078023 -5.74610279 -1.74435263 0 0 Z " fill="#E6E2CF" transform="translate(105.5,26.0625)"/>
<path d="M0 0 C0 0.99 0 1.98 0 3 C-2.91618521 3.82558668 -5.59535494 4.18920445 -8.625 4.25 C-9.40101562 4.27578125 -10.17703125 4.3015625 -10.9765625 4.328125 C-11.64429687 4.21984375 -12.31203125 4.1115625 -13 4 C-13.66 3.01 -14.32 2.02 -15 1 C-9.9752761 0.37470103 -5.07471573 -0.13012092 0 0 Z " fill="#1C1E23" transform="translate(95,139)"/>
<path d="M0 0 C0.66 0.33 1.32 0.66 2 1 C1.61479436 3.53910197 1.29902057 4.72751123 -0.62890625 6.484375 C-1.26699219 6.90203125 -1.90507813 7.3196875 -2.5625 7.75 C-3.20316406 8.17796875 -3.84382813 8.6059375 -4.50390625 9.046875 C-5.24447266 9.51867187 -5.24447266 9.51867187 -6 10 C-6.66 9.67 -7.32 9.34 -8 9 C-7.01 8.34 -6.02 7.68 -5 7 C-5 6.01 -5 5.02 -5 4 C-2.5 1.8125 -2.5 1.8125 0 0 Z " fill="#1D1F22" transform="translate(120,125)"/>
<path d="M0 0 C1.32 0.33 2.64 0.66 4 1 C4 3.31 4 5.62 4 8 C2.68 8.33 1.36 8.66 0 9 C0 6.03 0 3.06 0 0 Z " fill="#38393A" transform="translate(89,74)"/>
<path d="M0 0 C2.32947183 2.11770166 3.88750845 4.03335588 5 7 C4.67 7.99 4.34 8.98 4 10 C1 9 1 9 -0.75 6.0625 C-1.1625 5.051875 -1.575 4.04125 -2 3 C-1 1 -1 1 0 0 Z " fill="#1D1F23" transform="translate(132,51)"/>
<path d="M0 0 C8.57142857 0.71428571 8.57142857 0.71428571 12 4 C11.67 4.66 11.34 5.32 11 6 C5.25 5.125 5.25 5.125 3 4 C3 3.01 3 2.02 3 1 C2.01 0.67 1.02 0.34 0 0 Z " fill="#1F2125" transform="translate(96,27)"/>
<path d="M0 0 C1.58468677 0.45363171 3.16769924 0.91311452 4.75 1.375 C5.63171875 1.63023437 6.5134375 1.88546875 7.421875 2.1484375 C9.76080572 2.9209934 11.83442562 3.83625676 14 5 C8.34264585 6.55577239 5.20333134 5.24281523 0 3 C0 2.01 0 1.02 0 0 Z " fill="#E3DECB" transform="translate(60,138)"/>
<path d="M0 0 C1.98 0.495 1.98 0.495 4 1 C4.33 3.31 4.66 5.62 5 8 C3.35 8 1.7 8 0 8 C-0.79953138 4.71303767 -1.09658936 3.28976808 0 0 Z " fill="#D5CEBA" transform="translate(93,90)"/>
<path d="M0 0 C0.33 0.99 0.66 1.98 1 3 C-0.74029302 3.89415055 -2.4927015 4.76475178 -4.25 5.625 C-5.22453125 6.11226562 -6.1990625 6.59953125 -7.203125 7.1015625 C-10 8 -10 8 -12.359375 7.1484375 C-12.90078125 6.76945313 -13.4421875 6.39046875 -14 6 C-13.07316406 5.65066406 -12.14632812 5.30132812 -11.19140625 4.94140625 C-9.99386719 4.48636719 -8.79632813 4.03132812 -7.5625 3.5625 C-6.36753906 3.11003906 -5.17257813 2.65757812 -3.94140625 2.19140625 C-1.15554277 1.2855174 -1.15554277 1.2855174 0 0 Z " fill="#DFDCCC" transform="translate(111,129)"/>
<path d="M0 0 C1.12894876 0.93274109 2.25300876 1.87140122 3.375 2.8125 C4.00148438 3.33457031 4.62796875 3.85664062 5.2734375 4.39453125 C7 6 7 6 9 9 C8.01 9.33 7.02 9.66 6 10 C4.98808455 9.09650406 3.99081074 8.17659153 3 7.25 C2.1646875 6.48429687 2.1646875 6.48429687 1.3125 5.703125 C0 4 0 4 0 0 Z " fill="#E1DDCC" transform="translate(38,121)"/>
<path d="M0 0 C0.99 0.33 1.98 0.66 3 1 C2.5205537 5.21912747 1.83374881 7.79663178 -1 11 C-1 8.69 -1 6.38 -1 4 C-1.99 3.67 -2.98 3.34 -4 3 C-3.34 3 -2.68 3 -2 3 C-2 2.34 -2 1.68 -2 1 C-1.34 0.67 -0.68 0.34 0 0 Z " fill="#DDD5C0" transform="translate(60,70)"/>
<path d="M0 0 C0.66 0 1.32 0 2 0 C0.54331217 2.96783129 -1.01232086 5.86415313 -2.625 8.75 C-3.29402344 9.94882812 -3.29402344 9.94882812 -3.9765625 11.171875 C-4.31429687 11.77515625 -4.65203125 12.3784375 -5 13 C-5.66 13 -6.32 13 -7 13 C-5.65846062 7.99971686 -3.51629997 3.80932497 0 0 Z " fill="#E8E6D8" transform="translate(42,48)"/>
<path d="M0 0 C7.48291572 6.15034169 7.48291572 6.15034169 10 10 C9.01 10.33 8.02 10.66 7 11 C5.82439821 9.73742767 4.65977135 8.46462916 3.5 7.1875 C2.8503125 6.47980469 2.200625 5.77210937 1.53125 5.04296875 C0 3 0 3 0 0 Z " fill="#F6F1E1" transform="translate(122,36)"/>
<path d="M0 0 C0.33 1.32 0.66 2.64 1 4 C-3.01804691 4.84098656 -6.01803543 5.05404945 -10 4 C-6.95860798 0.50239917 -4.5534811 0 0 0 Z " fill="#323335" transform="translate(100,137)"/>
<path d="M0 0 C0 3 0 3 -1.2421875 4.60546875 C-1.78101562 5.12753906 -2.31984375 5.64960938 -2.875 6.1875 C-3.40867187 6.71730469 -3.94234375 7.24710938 -4.4921875 7.79296875 C-6 9 -6 9 -8 9 C-7.61479436 6.46089803 -7.29902057 5.27248877 -5.37109375 3.515625 C-4.73300781 3.09796875 -4.09492187 2.6803125 -3.4375 2.25 C-2.79683594 1.82203125 -2.15617187 1.3940625 -1.49609375 0.953125 C-1.00238281 0.63859375 -0.50867188 0.3240625 0 0 Z " fill="#EEEAD8" transform="translate(129,123)"/>
<path d="M0 0 C2.9375 1.1875 2.9375 1.1875 6 3 C6.875 5.6875 6.875 5.6875 7 8 C5.1875 7.8125 5.1875 7.8125 3 7 C0 2.82142857 0 2.82142857 0 0 Z " fill="#222427" transform="translate(34,113)"/>
<path d="M0 0 C1.98 0.495 1.98 0.495 4 1 C3.67 2.65 3.34 4.3 3 6 C1.68 5.67 0.36 5.34 -1 5 C-0.67 3.35 -0.34 1.7 0 0 Z " fill="#E9E2CE" transform="translate(148,92)"/>
<path d="M0 0 C0.66 1.32 1.32 2.64 2 4 C0.02 6.97 0.02 6.97 -2 10 C-2.66 9.01 -3.32 8.02 -4 7 C-3.1025444 3.93369336 -2.26961192 2.26961192 0 0 Z " fill="#1E2023" transform="translate(39,46)"/>
<path d="M0 0 C1.98 0.66 3.96 1.32 6 2 C6 2.99 6 3.98 6 5 C0.25 4.25 0.25 4.25 -2 2 C-1.34 2 -0.68 2 0 2 C0 1.34 0 0.68 0 0 Z " fill="#1E1F24" transform="translate(62,135)"/>
<path d="M0 0 C0.66 0 1.32 0 2 0 C1.32902328 4.19360449 -0.8558394 7.40334352 -3 11 C-3.66 10.67 -4.32 10.34 -5 10 C-3.33333333 6.66666667 -1.66666667 3.33333333 0 0 Z " fill="#E3E1D3" transform="translate(131,107)"/>
<path d="M0 0 C0.99 0 1.98 0 3 0 C3 2.64 3 5.28 3 8 C2.01 8 1.02 8 0 8 C0 5.36 0 2.72 0 0 Z " fill="#0F1015" transform="translate(39,74)"/>
<path d="M0 0 C0.99 0 1.98 0 3 0 C3 2.64 3 5.28 3 8 C2.01 8 1.02 8 0 8 C0 5.36 0 2.72 0 0 Z " fill="#13151A" transform="translate(56,74)"/>
<path d="M0 0 C0 1.32 0 2.64 0 4 C-1.98 4.33 -3.96 4.66 -6 5 C-5.6875 3.0625 -5.6875 3.0625 -5 1 C-2 0 -2 0 0 0 Z " fill="#222428" transform="translate(106,135)"/>
<path d="M0 0 C1.15224028 0.92961422 2.29659176 1.8690125 3.4375 2.8125 C4.07558594 3.33457031 4.71367188 3.85664062 5.37109375 4.39453125 C7 6 7 6 8 9 C4.63704165 7.55873214 2.37072898 5.79407345 0 3 C0 2.01 0 1.02 0 0 Z " fill="#F1EFDD" transform="translate(43,118)"/>
<path d="M0 0 C1.32 0 2.64 0 4 0 C4.103125 0.78375 4.20625 1.5675 4.3125 2.375 C4.77595022 5.33045181 4.77595022 5.33045181 8 7 C5.5625 6.625 5.5625 6.625 3 6 C2.67 5.34 2.34 4.68 2 4 C1.34 4.66 0.68 5.32 0 6 C0 4.02 0 2.04 0 0 Z " fill="#17191F" transform="translate(143,92)"/>
<path d="M0 0 C0.99 0.33 1.98 0.66 3 1 C1.515 4.96 1.515 4.96 0 9 C-2 6 -2 6 -1.6875 3.375 C-1 1 -1 1 0 0 Z " fill="#1C1F24" transform="translate(98,85)"/>
<path d="M0 0 C0.66 0 1.32 0 2 0 C3.65 3.3 5.3 6.6 7 10 C2.95868733 8.65289578 2.09711566 6.61571666 0 3 C0 2.01 0 1.02 0 0 Z " fill="#DFDDCE" transform="translate(127,51)"/>
<path d="M0 0 C0.66 1.32 1.32 2.64 2 4 C1.01 5.485 1.01 5.485 0 7 C-1.65 6.67 -3.3 6.34 -5 6 C-4.34 5.67 -3.68 5.34 -3 5 C-2.30062468 3.68352881 -1.63270867 2.34977849 -1 1 C-0.67 0.67 -0.34 0.34 0 0 Z " fill="#D1C8B5" transform="translate(61,81)"/>
<path d="M0 0 C0.66 1.32 1.32 2.64 2 4 C0.68 4.99 -0.64 5.98 -2 7 C-2.66 6.67 -3.32 6.34 -4 6 C-4 5.01 -4 4.02 -4 3 C-2 1.3125 -2 1.3125 0 0 Z " fill="#1D1E22" transform="translate(52,34)"/>
<path d="M0 0 C0.99 0.33 1.98 0.66 3 1 C2.67 2.32 2.34 3.64 2 5 C0.35 5.33 -1.3 5.66 -3 6 C-1.125 1.125 -1.125 1.125 0 0 Z " fill="#202124" transform="translate(131,112)"/>
<path d="M0 0 C1.125 1.625 1.125 1.625 2 4 C1.125 7.25 1.125 7.25 0 10 C-2.14915785 6.77626323 -2.38286803 5.73296326 -2 2 C-1.34 1.34 -0.68 0.68 0 0 Z " fill="#F2EBD3" transform="translate(60,85)"/>
<path d="M0 0 C0.33 0 0.66 0 1 0 C1.27791731 1.7248998 1.52118919 3.45540215 1.75 5.1875 C1.88921875 6.15042969 2.0284375 7.11335938 2.171875 8.10546875 C2 11 2 11 -2 16 C-1.34 10.72 -0.68 5.44 0 0 Z " fill="#12151B" transform="translate(64,73)"/>
<path d="M0 0 C0.625 1.875 0.625 1.875 1 4 C0.34 4.66 -0.32 5.32 -1 6 C-3.125 5.625 -3.125 5.625 -5 5 C-3.35 3.35 -1.7 1.7 0 0 Z " fill="#292A2D" transform="translate(57,31)"/>
<path d="M0 0 C0.66 0 1.32 0 2 0 C3.4606285 2.64738916 4 3.89448334 4 7 C3.01 6.67 2.02 6.34 1 6 C-0.1875 3.4375 -0.1875 3.4375 -1 1 C-0.67 0.67 -0.34 0.34 0 0 Z " fill="#DDD8C7" transform="translate(136,54)"/>
<path d="M0 0 C0.33 0 0.66 0 1 0 C1 2.97 1 5.94 1 9 C0.01 9 -0.98 9 -2 9 C-1.34 6.03 -0.68 3.06 0 0 Z " fill="#1B1D20" transform="translate(106,79)"/>
<path d="M0 0 C0.99 0.66 1.98 1.32 3 2 C2.67 3.32 2.34 4.64 2 6 C0.68 5.01 -0.64 4.02 -2 3 C-1.34 2.01 -0.68 1.02 0 0 Z " fill="#333435" transform="translate(108,30)"/>
<path d="M0 0 C-0.33 0.99 -0.66 1.98 -1 3 C-4.0625 4.1875 -4.0625 4.1875 -7 5 C-6 2 -6 2 -4.0625 0.8125 C-2 0 -2 0 0 0 Z " fill="#F4F0DD" transform="translate(60,28)"/>
<path d="M0 0 C0 0.99 0 1.98 0 3 C-2.97 2.67 -5.94 2.34 -9 2 C-5.23312136 0.11656068 -3.97041037 -0.22057835 0 0 Z " fill="#CECBBA" transform="translate(99,24)"/>
</svg>
